<svg xmlns="http://www.w3.org/2000/svg" viewBox="0 0 200 200" width="200" height="200">
  <defs>
    <linearGradient id="bg5" x1="0%" y1="0%" x2="100%" y2="100%"><stop offset="0%" stop-color="#0a1020"/><stop offset="100%" stop-color="#102040"/></linearGradient>
    <filter id="g5"><feGaussianBlur stdDeviation="3" result="b"/><feMerge><feMergeNode in="b"/><feMergeNode in="SourceGraphic"/></feMerge></filter>
  </defs>
  <rect width="200" height="200" fill="url(#bg5)"/>
  <g opacity="0.05" stroke="#60a5fa" stroke-width="0.5" fill="none"><path d="M20,180 L60,100 L140,100 L180,180"/></g>
  <!-- Wolf body -->
  <g transform="translate(100,95)" filter="url(#g5)">
    <ellipse cx="0" cy="10" rx="30" ry="20" fill="#1a2a4a" stroke="#60a5fa" stroke-width="1"/>
    <ellipse cx="0" cy="-15" rx="18" ry="14" fill="#2a3a5a" stroke="#60a5fa" stroke-width="1"/>
    <ellipse cx="-6" cy="-17" rx="3" ry="2.5" fill="#60a5fa" filter="url(#g5)"/>
    <ellipse cx="6" cy="-17" rx="3" ry="2.5" fill="#60a5fa" filter="url(#g5)"/>
    <circle cx="-6" cy="-17" r="1" fill="#fff"/><circle cx="6" cy="-17" r="1" fill="#fff"/>
    <polygon points="-10,-28 -6,-18 -14,-22" fill="#0a1a3a" stroke="#60a5fa" stroke-width="0.6"/>
    <polygon points="10,-28 6,-18 14,-22" fill="#0a1a3a" stroke="#60a5fa" stroke-width="0.6"/>
    <ellipse cx="0" cy="-10" rx="6" ry="4" fill="#1a2a4a"/>
    <ellipse cx="0" cy="-11" rx="2" ry="1.5" fill="#0a0a1a"/>
    <path d="M-25,20 L-30,30 M-23,22 L-28,32 M-21,23 L-26,31" stroke="#93c5fd" stroke-width="1.5" stroke-linecap="round" filter="url(#g5)"/>
    <path d="M25,20 L30,30 M23,22 L28,32 M21,23 L26,31" stroke="#93c5fd" stroke-width="1.5" stroke-linecap="round" filter="url(#g5)"/>
  </g>
  <rect x="30" y="185" width="140" height="12" rx="3" fill="rgba(0,0,0,0.6)"/>
  <text x="100" y="194" text-anchor="middle" font-family="monospace" font-weight="bold" font-size="7" fill="#60a5fa">КИБЕР-ВОЛК</text>
</svg>